<svg width="512" height="512" viewBox="0 0 512 512" fill="none" xmlns="http://www.w3.org/2000/svg">
<path d="M512 312.19C512 484.608 397.385 512 256 512C114.615 512 0 484.608 0 312.19C0 139.772 114.615 0 256 0C397.385 0 512 139.772 512 312.19Z" fill="#FF4D0C"/>
<path d="M384.774 200.558C384.774 211.674 377.384 220.686 368.269 220.686C359.153 220.686 351.764 211.674 351.764 200.558C351.764 189.442 359.153 180.43 368.269 180.43C377.384 180.43 384.774 189.442 384.774 200.558Z" fill="black"/>
<path d="M189.464 200.558C189.464 211.674 182.075 220.686 172.959 220.686C163.844 220.686 156.454 211.674 156.454 200.558C156.454 189.442 163.844 180.43 172.959 180.43C182.075 180.43 189.464 189.442 189.464 200.558Z" fill="black"/>
<path d="M180.696 194.478C180.696 197.836 178.464 200.558 175.71 200.558C172.956 200.558 170.724 197.836 170.724 194.478C170.724 191.12 172.956 188.397 175.71 188.397C178.464 188.397 180.696 191.12 180.696 194.478Z" fill="white"/>
<path d="M373.255 194.478C373.255 197.836 371.022 200.558 368.269 200.558C365.515 200.558 363.283 197.836 363.283 194.478C363.283 191.12 365.515 188.397 368.269 188.397C371.022 188.397 373.255 191.12 373.255 194.478Z" fill="white"/>
<path d="M316.205 220.108C321.974 214.918 330.101 216.413 334.357 223.448C338.613 230.483 337.387 240.394 331.618 245.584C306.527 268.159 282.623 273.704 261.786 271.502C241.554 269.365 224.749 259.884 214.471 254.553C207.874 251.132 204.801 241.836 207.606 233.791C210.412 225.746 218.034 221.998 224.631 225.419C235.741 231.181 248.655 238.337 264.026 239.961C278.792 241.521 296.374 237.95 316.205 220.108Z" fill="black"/>
<path d="M316.205 220.108C321.974 214.918 330.101 216.413 334.357 223.448C338.613 230.483 337.387 240.394 331.618 245.584C306.527 268.159 282.623 273.704 261.786 271.502C241.554 269.365 224.749 259.884 214.471 254.553C207.874 251.132 204.801 241.836 207.606 233.791C210.412 225.746 218.034 221.998 224.631 225.419C235.741 231.181 248.655 238.337 264.026 239.961C278.792 241.521 296.374 237.95 316.205 220.108Z" fill="black"/>
<path d="M393.03 380.812L382.803 357.224L395.161 349.255L413.343 391.19L401.612 398.754L398.155 390.782L397.797 391.013C398.211 394.17 397.813 397.105 396.602 399.819C395.384 402.514 393.491 404.689 390.924 406.345C388.521 407.894 386.125 408.578 383.735 408.395C381.36 408.203 379.159 407.247 377.133 405.525C375.123 403.794 373.447 401.405 372.106 398.357L360.505 371.602L372.863 363.633L383.091 387.221C384.005 389.287 385.144 390.637 386.508 391.271C387.886 391.896 389.352 391.708 390.904 390.707C391.934 390.043 392.707 389.206 393.225 388.197C393.749 387.161 394 386.021 393.977 384.778C393.961 383.508 393.645 382.186 393.03 380.812Z" fill="white"/>
<path d="M352.489 425.2C348.458 426.726 344.76 427.06 341.394 426.201C338.024 425.322 335.127 423.423 332.704 420.503C330.276 417.564 328.47 413.774 327.289 409.134C326.107 404.494 325.836 400.134 326.476 396.054C327.111 391.954 328.616 388.388 330.99 385.354C333.359 382.301 336.559 380.011 340.589 378.484C344.62 376.957 348.321 376.633 351.691 377.512C355.057 378.371 357.954 380.271 360.382 383.21C362.805 386.129 364.608 389.909 365.79 394.549C366.972 399.189 367.245 403.559 366.61 407.659C365.97 411.739 364.465 415.306 362.096 418.359C359.722 421.392 356.52 423.673 352.489 425.2ZM349.521 413.13C350.649 412.703 351.507 411.871 352.094 410.635C352.681 409.4 352.982 407.841 352.998 405.96C353.013 404.078 352.721 401.958 352.12 399.598C351.514 397.219 350.77 395.27 349.888 393.75C349 392.21 348.028 391.134 346.97 390.522C345.913 389.909 344.82 389.816 343.691 390.244C342.498 390.696 341.592 391.546 340.973 392.794C340.354 394.041 340.036 395.606 340.02 397.488C340 399.35 340.292 401.47 340.898 403.849C341.499 406.208 342.243 408.158 343.131 409.697C344.018 411.237 345.006 412.307 346.096 412.907C347.186 413.508 348.328 413.582 349.521 413.13Z" fill="white"/>
<path d="M306.99 437.735C302.817 438.504 299.12 438.155 295.899 436.687C292.675 435.199 290.046 432.789 288.011 429.458C285.973 426.107 284.657 422.029 284.061 417.224C283.466 412.42 283.737 408.06 284.873 404.144C286.008 400.208 287.936 396.958 290.657 394.395C293.376 391.812 296.822 390.136 300.996 389.366C305.169 388.597 308.867 388.957 312.091 390.445C315.312 391.912 317.942 394.322 319.979 397.674C322.014 401.005 323.329 405.073 323.925 409.877C324.52 414.681 324.251 419.051 323.116 422.988C321.98 426.904 320.052 430.153 317.333 432.737C314.611 435.3 311.164 436.966 306.99 437.735ZM305.546 425.258C306.715 425.042 307.666 424.378 308.398 423.264C309.131 422.151 309.621 420.665 309.869 418.808C310.117 416.951 310.09 414.801 309.787 412.358C309.482 409.895 308.987 407.831 308.303 406.166C307.616 404.481 306.787 403.239 305.817 402.439C304.847 401.639 303.778 401.347 302.61 401.562C301.374 401.79 300.374 402.464 299.607 403.583C298.841 404.703 298.334 406.192 298.086 408.049C297.836 409.886 297.863 412.036 298.169 414.499C298.471 416.942 298.966 419.006 299.653 420.691C300.34 422.376 301.185 423.615 302.189 424.409C303.192 425.203 304.311 425.486 305.546 425.258Z" fill="white"/>
<path d="M264.69 398.584C264.47 397.493 264.124 396.535 263.651 395.712C263.178 394.868 262.587 394.159 261.877 393.582C261.185 392.986 260.374 392.544 259.446 392.256C258.534 391.948 257.529 391.794 256.432 391.795C254.068 391.796 252.051 392.487 250.38 393.868C248.726 395.248 247.461 397.236 246.584 399.831C245.724 402.425 245.295 405.555 245.297 409.22C245.298 412.926 245.713 416.096 246.542 418.731C247.37 421.366 248.604 423.382 250.242 424.781C251.88 426.18 253.915 426.879 256.346 426.877C258.49 426.876 260.271 426.494 261.689 425.731C263.123 424.969 264.195 423.887 264.903 422.487C265.612 421.086 265.966 419.439 265.965 417.545L268.396 417.852L256.544 417.86L256.539 405.63L279.533 405.615L279.537 414.386C279.54 420.151 278.537 425.082 276.53 429.18C274.54 433.258 271.789 436.389 268.279 438.574C264.785 440.738 260.776 441.822 256.251 441.825C251.203 441.828 246.771 440.523 242.954 437.911C239.138 435.299 236.156 431.574 234.01 426.738C231.881 421.901 230.814 416.147 230.812 409.476C230.809 404.247 231.457 399.614 232.755 395.578C234.07 391.542 235.892 388.133 238.221 385.352C240.55 382.551 243.241 380.439 246.297 379.016C249.352 377.573 252.627 376.85 256.121 376.848C259.194 376.846 262.047 377.379 264.682 378.448C267.333 379.496 269.671 380.998 271.698 382.953C273.742 384.886 275.389 387.181 276.639 389.836C277.89 392.491 278.651 395.404 278.922 398.574L264.69 398.584Z" fill="#DAEA7F"/>
<path d="M200.657 408.964L197.36 435.342L183.541 432.774L189.402 385.88L202.52 388.318L201.406 397.233L201.806 397.307C203.012 394.491 204.772 392.433 207.086 391.135C209.417 389.839 211.993 389.454 214.813 389.978C217.534 390.484 219.8 391.686 221.612 393.585C223.443 395.466 224.744 397.832 225.515 400.683C226.303 403.537 226.476 406.661 226.034 410.057L222.295 439.977L208.476 437.408L211.772 411.03C212.079 408.713 211.823 406.802 211.003 405.296C210.201 403.793 208.931 402.88 207.196 402.557C206.061 402.346 205.029 402.467 204.102 402.92C203.194 403.355 202.444 404.09 201.854 405.126C201.266 406.141 200.867 407.421 200.657 408.964Z" fill="white"/>
<path d="M161.029 425.857L171.179 380.065L184.673 384.513L174.524 430.305L161.029 425.857ZM178.983 377.519C177.158 376.917 175.756 375.666 174.779 373.766C173.801 371.865 173.541 369.881 173.999 367.814C174.457 365.747 175.501 364.193 177.131 363.152C178.761 362.111 180.488 361.892 182.314 362.493C184.155 363.101 185.557 364.352 186.519 366.247C187.496 368.147 187.756 370.131 187.298 372.198C186.84 374.265 185.796 375.819 184.166 376.86C182.553 377.906 180.825 378.126 178.983 377.519Z" fill="white"/>
<path d="M115.628 403.269L135.679 344.939L156.324 355.494C159.874 357.309 162.687 359.751 164.762 362.821C166.837 365.891 168.082 369.351 168.497 373.202C168.912 377.054 168.409 381.049 166.986 385.188C165.55 389.365 163.544 392.592 160.967 394.869C158.406 397.154 155.471 398.422 152.163 398.673C148.87 398.932 145.402 398.13 141.759 396.268L129.428 389.964L133.657 377.66L143.373 382.627C144.899 383.407 146.31 383.749 147.606 383.652C148.924 383.545 150.08 383.031 151.074 382.11C152.083 381.197 152.872 379.915 153.44 378.263C154.014 376.592 154.208 375.017 154.021 373.537C153.856 372.047 153.336 370.709 152.462 369.526C151.609 368.331 150.42 367.343 148.894 366.563L144.317 364.223L128.613 409.907L115.628 403.269Z" fill="white"/>
</svg>
