<svg width="192" height="192" viewBox="0 0 192 192" fill="none" xmlns="http://www.w3.org/2000/svg">
<path d="M192 117.071C192 181.728 149.019 192 96 192C42.9807 192 0 181.728 0 117.071C0 52.4146 42.9807 0 96 0C149.019 0 192 52.4146 192 117.071Z" fill="#FF4D0C"/>
<path d="M144.29 75.2092C144.29 79.3778 141.519 82.7571 138.101 82.7571C134.682 82.7571 131.911 79.3778 131.911 75.2092C131.911 71.0406 134.682 67.6613 138.101 67.6613C141.519 67.6613 144.29 71.0406 144.29 75.2092Z" fill="black"/>
<path d="M71.049 75.2092C71.049 79.3778 68.2779 82.7571 64.8596 82.7571C61.4413 82.7571 58.6702 79.3778 58.6702 75.2092C58.6702 71.0406 61.4413 67.6613 64.8596 67.6613C68.2779 67.6613 71.049 71.0406 71.049 75.2092Z" fill="black"/>
<path d="M67.7609 72.9291C67.7609 74.1884 66.9238 75.2092 65.8912 75.2092C64.8586 75.2092 64.0215 74.1884 64.0215 72.9291C64.0215 71.6699 64.8586 70.649 65.8912 70.649C66.9238 70.649 67.7609 71.6699 67.7609 72.9291Z" fill="white"/>
<path d="M139.97 72.9291C139.97 74.1884 139.133 75.2092 138.101 75.2092C137.068 75.2092 136.231 74.1884 136.231 72.9291C136.231 71.6699 137.068 70.649 138.101 70.649C139.133 70.649 139.97 71.6699 139.97 72.9291Z" fill="white"/>
<path d="M118.577 82.5405C120.74 80.5942 123.788 81.155 125.384 83.7931C126.98 86.4313 126.52 90.1478 124.357 92.0941C114.948 100.56 105.983 102.639 98.1696 101.813C90.5829 101.012 84.281 97.4564 80.4267 95.4574C77.9528 94.1743 76.8002 90.6885 77.8524 87.6716C78.9045 84.6547 81.7629 83.2491 84.2368 84.5322C88.4028 86.6928 93.2456 89.3765 99.0098 89.9855C104.547 90.5704 111.14 89.2313 118.577 82.5405Z" fill="black"/>
<path d="M118.577 82.5405C120.74 80.5942 123.788 81.155 125.384 83.7931C126.98 86.4313 126.52 90.1478 124.357 92.0941C114.948 100.56 105.983 102.639 98.1696 101.813C90.5829 101.012 84.281 97.4564 80.4267 95.4574C77.9528 94.1743 76.8002 90.6885 77.8524 87.6716C78.9045 84.6547 81.7629 83.2491 84.2368 84.5322C88.4028 86.6928 93.2456 89.3765 99.0098 89.9855C104.547 90.5704 111.14 89.2313 118.577 82.5405Z" fill="black"/>
<path d="M147.386 142.804L143.551 133.959L148.185 130.971L155.004 146.696L150.604 149.533L149.308 146.543L149.174 146.63C149.329 147.814 149.18 148.914 148.726 149.932C148.269 150.943 147.559 151.758 146.596 152.379C145.695 152.96 144.797 153.217 143.901 153.148C143.01 153.076 142.185 152.717 141.425 152.072C140.671 151.423 140.043 150.527 139.54 149.384L135.19 139.351L139.824 136.363L143.659 145.208C144.002 145.982 144.429 146.489 144.94 146.727C145.457 146.961 146.007 146.89 146.589 146.515C146.975 146.266 147.265 145.952 147.459 145.574C147.656 145.185 147.75 144.758 147.741 144.292C147.735 143.815 147.617 143.32 147.386 142.804Z" fill="white"/>
<path d="M132.183 159.45C130.672 160.022 129.285 160.148 128.023 159.825C126.759 159.496 125.673 158.783 124.764 157.689C123.853 156.586 123.176 155.165 122.733 153.425C122.29 151.685 122.188 150.05 122.428 148.52C122.667 146.983 123.231 145.645 124.121 144.508C125.01 143.363 126.209 142.504 127.721 141.931C129.233 141.359 130.62 141.237 131.884 141.567C133.146 141.889 134.233 142.601 135.143 143.704C136.052 144.798 136.728 146.216 137.171 147.956C137.614 149.696 137.717 151.335 137.479 152.872C137.239 154.402 136.674 155.74 135.786 156.885C134.896 158.022 133.695 158.877 132.183 159.45ZM131.07 154.924C131.493 154.763 131.815 154.452 132.035 153.988C132.255 153.525 132.368 152.94 132.374 152.235C132.38 151.529 132.27 150.734 132.045 149.849C131.818 148.957 131.539 148.226 131.208 147.656C130.875 147.079 130.511 146.675 130.114 146.446C129.717 146.216 129.307 146.181 128.884 146.341C128.437 146.511 128.097 146.83 127.865 147.298C127.633 147.766 127.514 148.352 127.508 149.058C127.5 149.756 127.61 150.551 127.837 151.443C128.062 152.328 128.341 153.059 128.674 153.637C129.007 154.214 129.377 154.615 129.786 154.84C130.195 155.065 130.623 155.093 131.07 154.924Z" fill="white"/>
<path d="M115.121 164.151C113.556 164.439 112.17 164.308 110.962 163.758C109.753 163.2 108.767 162.296 108.004 161.047C107.24 159.79 106.746 158.261 106.523 156.459C106.3 154.658 106.401 153.022 106.828 151.554C107.253 150.078 107.976 148.859 108.996 147.898C110.016 146.929 111.308 146.301 112.873 146.012C114.438 145.724 115.825 145.859 117.034 146.417C118.242 146.967 119.228 147.871 119.992 149.128C120.755 150.377 121.248 151.902 121.472 153.704C121.695 155.505 121.594 157.144 121.169 158.62C120.742 160.089 120.019 161.307 119 162.276C117.979 163.237 116.686 163.862 115.121 164.151ZM114.58 159.472C115.018 159.391 115.375 159.142 115.649 158.724C115.924 158.306 116.108 157.749 116.201 157.053C116.294 156.356 116.284 155.55 116.17 154.634C116.056 153.71 115.87 152.936 115.613 152.312C115.356 151.68 115.045 151.215 114.682 150.915C114.318 150.615 113.917 150.505 113.479 150.586C113.015 150.671 112.64 150.924 112.353 151.344C112.066 151.764 111.875 152.322 111.782 153.018C111.688 153.707 111.699 154.513 111.813 155.437C111.927 156.353 112.112 157.127 112.37 157.759C112.628 158.391 112.944 158.856 113.321 159.153C113.697 159.451 114.117 159.557 114.58 159.472Z" fill="white"/>
<path d="M99.2589 149.469C99.1764 149.06 99.0465 148.701 98.8691 148.392C98.6917 148.076 98.47 147.809 98.204 147.593C97.9443 147.37 97.6403 147.204 97.2921 147.096C96.9501 146.98 96.5734 146.923 96.1619 146.923C95.2756 146.924 94.5191 147.183 93.8926 147.7C93.2724 148.218 92.7979 148.964 92.4691 149.937C92.1466 150.91 91.9857 152.083 91.9863 153.457C91.9869 154.847 92.1425 156.036 92.4532 157.024C92.7638 158.012 93.2263 158.768 93.8407 159.293C94.455 159.818 95.218 160.08 96.1297 160.079C96.9337 160.079 97.6016 159.935 98.1333 159.649C98.6713 159.363 99.0731 158.958 99.3388 158.432C99.6045 157.907 99.7371 157.29 99.7368 156.579L100.649 156.694L96.2042 156.697L96.2022 152.111L104.825 152.106L104.826 155.395C104.827 157.556 104.452 159.406 103.699 160.943C102.952 162.472 101.921 163.646 100.604 164.465C99.2943 165.277 97.7909 165.683 96.0942 165.684C94.2012 165.685 92.5391 165.196 91.1078 164.217C89.6766 163.237 88.5586 161.84 87.7537 160.027C86.9552 158.213 86.5554 156.055 86.5543 153.554C86.5535 151.593 86.7965 149.855 87.2833 148.342C87.7764 146.828 88.4596 145.55 89.3329 144.507C90.2061 143.457 91.2155 142.665 92.3612 142.131C93.5069 141.59 94.735 141.319 96.0455 141.318C97.1977 141.317 98.2678 141.517 99.2556 141.918C100.25 142.311 101.127 142.874 101.887 143.607C102.653 144.332 103.271 145.193 103.74 146.189C104.209 147.184 104.494 148.276 104.596 149.465L99.2589 149.469Z" fill="#DAEA7F"/>
<path d="M75.2463 153.362L74.0101 163.253L68.8278 162.29L71.0256 144.705L75.9449 145.619L75.5271 148.962L75.6774 148.99C76.1296 147.934 76.7895 147.162 77.6573 146.676C78.5313 146.19 79.4972 146.045 80.555 146.242C81.5751 146.431 82.425 146.882 83.1045 147.594C83.7912 148.3 84.2791 149.187 84.5682 150.256C84.8635 151.326 84.9284 152.498 84.7628 153.771L83.3606 164.991L78.1784 164.028L79.4146 154.136C79.5296 153.267 79.4335 152.551 79.1262 151.986C78.8252 151.422 78.3493 151.08 77.6984 150.959C77.2728 150.88 76.8861 150.925 76.5382 151.095C76.1976 151.258 75.9166 151.534 75.6952 151.922C75.4747 152.303 75.325 152.783 75.2463 153.362Z" fill="white"/>
<path d="M60.3858 159.696L64.192 142.524L69.2525 144.192L65.4463 161.364L60.3858 159.696ZM67.1187 141.57C66.4342 141.344 65.9086 140.875 65.5419 140.162C65.1753 139.449 65.0778 138.706 65.2496 137.93C65.4214 137.155 65.8129 136.573 66.4241 136.182C67.0353 135.792 67.6831 135.709 68.3676 135.935C69.0583 136.163 69.5839 136.632 69.9444 137.343C70.3111 138.055 70.4086 138.799 70.2368 139.574C70.065 140.349 69.6735 140.932 69.0623 141.323C68.4572 141.715 67.8094 141.797 67.1187 141.57Z" fill="white"/>
<path d="M43.3604 151.226L50.8794 129.352L58.6216 133.31C59.9528 133.991 61.0075 134.907 61.7857 136.058C62.5638 137.209 63.0307 138.507 63.1865 139.951C63.3422 141.395 63.1533 142.893 62.6197 144.446C62.0812 146.012 61.3288 147.222 60.3626 148.076C59.4021 148.933 58.3017 149.408 57.0611 149.502C55.8264 149.6 54.5259 149.299 53.1596 148.6L48.5353 146.236L50.1214 141.623L53.7648 143.485C54.3369 143.778 54.8661 143.906 55.3522 143.87C55.8466 143.829 56.2801 143.637 56.6528 143.291C57.0313 142.949 57.327 142.468 57.54 141.849C57.7554 141.222 57.828 140.631 57.7579 140.077C57.696 139.517 57.5012 139.016 57.1732 138.572C56.8536 138.124 56.4076 137.754 55.8354 137.461L54.1188 136.584L48.2299 153.715L43.3604 151.226Z" fill="white"/>
</svg>
