<svg width="3841" height="3935" viewBox="0 0 3841 3935" fill="none" xmlns="http://www.w3.org/2000/svg">
<path d="M490.673 3935C219.682 3935 0.000140952 3715.3 0.000129106 3444.3L0 490.703C-1.18461e-05 219.695 219.682 0.000136845 490.673 0.000124999L3350.33 0C3621.32 -1.18454e-05 3841 219.695 3841 490.703L3841 3444.3C3841 3715.3 3621.32 3935 3350.33 3935H490.673Z" fill="#FF4D0C"/>
<path d="M2040.82 1511.21C2040.82 1867.64 1751.18 2156.58 1393.89 2156.58C1036.59 2156.58 746.948 1867.64 746.948 1511.21C746.948 1154.77 1036.59 865.83 1393.89 865.83C1751.18 865.83 2040.82 1154.77 2040.82 1511.21Z" fill="white"/>
<path d="M3090.93 1511.21C3090.93 1867.64 2801.28 2156.58 2443.99 2156.58C2086.69 2156.58 1797.05 1867.64 1797.05 1511.21C1797.05 1154.77 2086.69 865.83 2443.99 865.83C2801.28 865.83 3090.93 1154.77 3090.93 1511.21Z" fill="white"/>
<path d="M2637.76 1647.16C2637.76 1824.94 2492.94 1969.06 2314.29 1969.06C2135.64 1969.06 1990.82 1824.94 1990.82 1647.16C1990.82 1469.37 2135.64 1325.25 2314.29 1325.25C2492.94 1325.25 2637.76 1469.37 2637.76 1647.16Z" fill="#090909"/>
<path d="M1843.93 1647.16C1843.93 1824.94 1699.11 1969.06 1520.46 1969.06C1341.81 1969.06 1196.99 1824.94 1196.99 1647.16C1196.99 1469.37 1341.81 1325.25 1520.46 1325.25C1699.11 1325.25 1843.93 1469.37 1843.93 1647.16Z" fill="#090909"/>
<path fill-rule="evenodd" clip-rule="evenodd" d="M3222.32 2091.96C3305.21 2091.96 3382.78 2161.16 3370.87 2254.75C3335.96 2529.2 3156.09 2767.48 2897.15 2935.4C2637.84 3103.55 2294.81 3204.57 1920.63 3204.57C1546.46 3204.57 1203.42 3103.55 944.113 2935.4C685.176 2767.48 505.31 2529.2 470.394 2254.75C458.487 2161.16 536.054 2091.96 618.944 2091.96C706.561 2091.96 767.722 2161.97 780.303 2235.1C805.357 2380.74 902.305 2528.52 1077.76 2652.33C1283.66 2797.61 1580.89 2895.16 1920.63 2895.16C2260.37 2895.16 2557.61 2797.61 2763.5 2652.33C2938.96 2528.52 3035.91 2380.74 3060.96 2235.1C3073.54 2161.97 3134.71 2091.96 3222.32 2091.96ZM1958.78 3138.58C1955.96 3138.63 1953.14 3138.68 1950.32 3138.72L1954.55 3138.65C1955.96 3138.63 1957.37 3138.6 1958.78 3138.58ZM2157.6 3124.75C2157.46 3124.77 2157.31 3124.78 2157.17 3124.8C2158.66 3124.62 2160.16 3124.44 2161.65 3124.25L2157.6 3124.75ZM2217.94 3116.46C2211.29 3117.49 2204.62 3118.47 2197.93 3119.43C2199.27 3119.24 2200.61 3119.05 2201.94 3118.85C2203.28 3118.66 2204.61 3118.46 2205.95 3118.27C2209.95 3117.68 2213.95 3117.08 2217.94 3116.46ZM2485.85 3054.51C2483.42 3055.27 2480.98 3056.03 2478.54 3056.79L2482.2 3055.65C2483.42 3055.27 2484.63 3054.89 2485.85 3054.51ZM2500.4 3049.86C2499.19 3050.26 2497.98 3050.65 2496.77 3051.04C2499.19 3050.26 2501.61 3049.47 2504.02 3048.69L2500.4 3049.86ZM1879.61 2960.34C1886.42 2960.49 1893.24 2960.6 1900.07 2960.68C1895.97 2960.63 1891.88 2960.58 1887.79 2960.5C1885.06 2960.45 1882.33 2960.4 1879.61 2960.34ZM1822.84 2958.18C1828.21 2958.46 1833.59 2958.73 1838.98 2958.97C1836.29 2958.85 1833.6 2958.72 1830.91 2958.59C1828.22 2958.46 1825.53 2958.32 1822.84 2958.18ZM1766.9 2954.28C1768.22 2954.4 1769.54 2954.51 1770.87 2954.62C1768.22 2954.4 1765.58 2954.17 1762.93 2953.94L1766.9 2954.28ZM1747.13 2952.49C1748.44 2952.61 1749.76 2952.74 1751.07 2952.86C1748.44 2952.61 1745.81 2952.36 1743.18 2952.1L1747.13 2952.49ZM1715.73 2949.16C1717.03 2949.31 1718.33 2949.46 1719.64 2949.61C1717.03 2949.32 1714.42 2949.02 1711.82 2948.71L1715.73 2949.16ZM1634.75 2937.92C1639.83 2938.75 1644.91 2939.56 1650.01 2940.34L1646.19 2939.75C1643.64 2939.35 1641.1 2938.95 1638.56 2938.54C1637.29 2938.34 1636.02 2938.13 1634.76 2937.92L1634.75 2937.92ZM2296.3 2920.76C2293.85 2921.3 2291.39 2921.83 2288.94 2922.36L2292.62 2921.57C2293.85 2921.3 2295.08 2921.03 2296.3 2920.76ZM1469 2902.15C1472.55 2903.11 1476.12 2904.07 1479.69 2905.01C1477.31 2904.38 1474.93 2903.75 1472.56 2903.11C1471.37 2902.79 1470.18 2902.47 1469 2902.15ZM1430.23 2891.12C1436.05 2892.85 1441.89 2894.56 1447.76 2896.24C1445.42 2895.57 1443.07 2894.89 1440.73 2894.21C1437.22 2893.19 1433.72 2892.16 1430.23 2891.12ZM1378.57 2874.7C1379.7 2875.08 1380.83 2875.47 1381.97 2875.85C1379.7 2875.09 1377.43 2874.32 1375.17 2873.55L1378.57 2874.7ZM1341.59 2861.69C1351.57 2865.35 1361.63 2868.92 1371.79 2872.4C1369.53 2871.62 1367.28 2870.85 1365.03 2870.07C1363.91 2869.67 1362.79 2869.28 1361.66 2868.89C1359.42 2868.1 1357.18 2867.31 1354.95 2866.52C1353.83 2866.12 1352.71 2865.72 1351.6 2865.32C1348.25 2864.12 1344.92 2862.91 1341.59 2861.69ZM1298.92 2845.28C1302.16 2846.59 1305.41 2847.88 1308.67 2849.17C1306.49 2848.31 1304.33 2847.45 1302.16 2846.58C1301.08 2846.15 1300 2845.72 1298.92 2845.28ZM1257.4 2827.8C1267.9 2832.42 1278.51 2836.93 1289.24 2841.34C1284.95 2839.58 1280.67 2837.8 1276.42 2836C1275.36 2835.55 1274.29 2835.1 1273.23 2834.65C1266.87 2831.94 1260.54 2829.19 1254.26 2826.41L1257.4 2827.8ZM1241.75 2820.79C1243.83 2821.74 1245.91 2822.68 1247.99 2823.61C1244.86 2822.21 1241.75 2820.8 1238.64 2819.38L1241.75 2820.79ZM1226.28 2813.64C1228.33 2814.6 1230.39 2815.56 1232.45 2816.52L1229.36 2815.08C1228.33 2814.6 1227.3 2814.12 1226.28 2813.64ZM1217.08 2809.27C1218.1 2809.76 1219.12 2810.25 1220.14 2810.73C1218.1 2809.76 1216.06 2808.79 1214.03 2807.81L1217.08 2809.27ZM1128.82 2762.75C1144.84 2772.01 1161.23 2781.02 1178 2789.74C1175.04 2788.2 1172.09 2786.65 1169.16 2785.1C1166.22 2783.54 1163.3 2781.98 1160.39 2780.4C1149.71 2774.63 1139.18 2768.75 1128.82 2762.75ZM1087.31 2737.63C1093.62 2741.63 1100.01 2745.59 1106.46 2749.5C1103.69 2747.82 1100.94 2746.14 1098.2 2744.45C1097.29 2743.88 1096.38 2743.32 1095.47 2742.75C1093.65 2741.62 1091.83 2740.48 1090.02 2739.34C1089.11 2738.77 1088.21 2738.2 1087.31 2737.63ZM1076.55 2730.73C1078.33 2731.89 1080.12 2733.04 1081.91 2734.19L1079.22 2732.46C1078.33 2731.89 1077.44 2731.31 1076.55 2730.73ZM1052.81 2714.92C1058.01 2718.48 1063.26 2722.01 1068.56 2725.51C1066.8 2724.34 1065.03 2723.17 1063.28 2722C1059.77 2719.65 1056.28 2717.29 1052.81 2714.92L1052.81 2714.92ZM962.191 2645.61C976.214 2657.61 990.804 2669.42 1005.96 2681.01C997.693 2674.69 989.595 2668.3 981.664 2661.85C980.343 2660.78 979.026 2659.7 977.713 2658.62C972.464 2654.31 967.29 2649.97 962.191 2645.61ZM884.895 2571.35C885.962 2572.5 887.034 2573.66 888.111 2574.82C885.957 2572.51 883.824 2570.19 881.708 2567.87L884.895 2571.35ZM2984.03 2539.78C2983.05 2540.96 2982.06 2542.14 2981.07 2543.32C2980.08 2544.5 2979.08 2545.67 2978.08 2546.85C2976.08 2549.2 2974.06 2551.55 2972.02 2553.89C2977.12 2548.04 2982.1 2542.15 2986.96 2536.24L2984.03 2539.78ZM3125.64 2246.23C3110.84 2332.28 3074.51 2416.94 3017.3 2496.75C3074.51 2416.94 3110.84 2332.28 3125.64 2246.23C3125.65 2246.17 3125.66 2246.11 3125.68 2246.05L3125.64 2246.23ZM535.087 2230.8C534.754 2235.17 534.794 2239.64 535.241 2244.19L535.265 2244.41C534.798 2239.78 534.748 2235.24 535.087 2230.8ZM3157.9 2184.47C3158.15 2184.22 3158.41 2183.97 3158.66 2183.73L3158.68 2183.72C3158.41 2183.97 3158.16 2184.22 3157.9 2184.47ZM620.094 2157.6C624.308 2157.65 628.447 2158 632.497 2158.62C631.761 2158.51 631.022 2158.41 630.28 2158.31C629.909 2158.26 629.537 2158.22 629.164 2158.18C628.419 2158.09 627.672 2158.01 626.921 2157.95C626.546 2157.91 626.17 2157.88 625.793 2157.85C625.04 2157.8 624.284 2157.75 623.526 2157.71C622.388 2157.65 621.243 2157.61 620.094 2157.6ZM3224.12 2157.61C3223.9 2157.61 3223.68 2157.6 3223.46 2157.6L3222.32 2157.59C3222.92 2157.59 3223.52 2157.6 3224.12 2157.61Z" fill="black"/>
</svg>
