<svg width="2978" height="2442" viewBox="0 0 2978 2442" fill="none" xmlns="http://www.w3.org/2000/svg">
  <style>
    @media (prefers-reduced-motion: reduce) {
      .bounce,
      .eyes {
        animation: none !important;
      }
    }

    .bounce {
      transform-box: fill-box;
      transform-origin: center;
      animation: mascote-bounce 1.9s ease-in-out infinite;
    }

    .eyes {
      transform-box: fill-box;
      transform-origin: center;
      animation: eyes-bounce 1.9s ease-in-out infinite;
    }

    @keyframes mascote-bounce {
      0%,
      100% {
        transform: translateY(0);
      }
      20% {
        transform: translateY(-80px);
      }
      45% {
        transform: translateY(0);
      }
      62% {
        transform: translateY(-38px);
      }
      78% {
        transform: translateY(0);
      }
    }

    @keyframes eyes-bounce {
      0%,
      100% {
        transform: translate(0, 0);
      }
      20% {
        transform: translate(16px, -10px);
      }
      45% {
        transform: translate(0, 0);
      }
      62% {
        transform: translate(-10px, -6px);
      }
      78% {
        transform: translate(0, 0);
      }
    }
  </style>

  <g class="bounce">
    <path d="M2978 1489C2978 2311.35 2311.35 2442 1489 2442C666.648 2442 0 2311.35 0 1489C0 666.648 666.648 0 1489 0C2311.35 0 2978 666.648 2978 1489Z" fill="#FF4D0C"/>

    <g class="eyes">
      <path d="M2238 956.567C2238 1009.59 2195.02 1052.57 2142 1052.57C2088.98 1052.57 2046 1009.59 2046 956.567C2046 903.548 2088.98 860.567 2142 860.567C2195.02 860.567 2238 903.548 2238 956.567Z" fill="black"/>
      <path d="M1102 956.567C1102 1009.59 1059.02 1052.57 1006 1052.57C952.981 1052.57 910 1009.59 910 956.567C910 903.548 952.981 860.567 1006 860.567C1059.02 860.567 1102 903.548 1102 956.567Z" fill="black"/>
      <path d="M1051 927.567C1051 943.583 1038.02 956.567 1022 956.567C1005.98 956.567 993 943.583 993 927.567C993 911.551 1005.98 898.567 1022 898.567C1038.02 898.567 1051 911.551 1051 927.567Z" fill="white"/>
      <path d="M2171 927.567C2171 943.583 2158.02 956.567 2142 956.567C2125.98 956.567 2113 943.583 2113 927.567C2113 911.551 2125.98 898.567 2142 898.567C2158.02 898.567 2171 911.551 2171 927.567Z" fill="white"/>
    </g>

    <path d="M1839.18 1049.81C1872.73 1025.06 1920 1032.19 1944.75 1065.74C1969.51 1099.3 1962.38 1146.57 1928.82 1171.32C1782.88 1278.99 1643.85 1305.44 1522.65 1294.94C1404.98 1284.75 1307.23 1239.52 1247.45 1214.1C1209.08 1197.78 1191.2 1153.44 1207.52 1115.07C1223.84 1076.7 1268.18 1058.82 1306.55 1075.14C1371.16 1102.62 1446.28 1136.76 1535.68 1144.5C1621.57 1151.94 1723.83 1134.91 1839.18 1049.81Z" fill="black"/>
  </g>
</svg>
