<svg width="3599" height="2442" viewBox="0 0 3599 2442" fill="none" xmlns="http://www.w3.org/2000/svg">
<path d="M3425.77 78.2841C3547.29 107.966 3621.74 230.539 3592.06 352.059C3456.63 906.517 3156.63 1245.36 2823.88 1433.81C2499.3 1617.63 2155.75 1651.81 1927.62 1624.03C1803.44 1608.9 1715.04 1495.98 1730.16 1371.81C1745.28 1247.63 1858.21 1159.23 1982.38 1174.35C2125.9 1191.83 2370.04 1170.23 2600.65 1039.63C2823.09 913.655 3045.78 679.435 3151.99 244.572C3181.67 123.052 3304.25 48.6027 3425.77 78.2841Z" fill="#FF4D0C"/>
<path d="M2978 1489C2978 2311.35 2311.35 2442 1489 2442C666.648 2442 0 2311.35 0 1489C0 666.648 666.648 0 1489 0C2311.35 0 2978 666.648 2978 1489Z" fill="#FF4D0C"/>
<path d="M2147 956C2147 1009.02 2104.02 1052 2051 1052C1997.98 1052 1955 1009.02 1955 956C1955 902.981 1997.98 860 2051 860C2104.02 860 2147 902.981 2147 956Z" fill="black"/>
<path d="M1011 956C1011 1009.02 968.019 1052 915 1052C861.981 1052 819 1009.02 819 956C819 902.981 861.981 860 915 860C968.019 860 1011 902.981 1011 956Z" fill="black"/>
<path d="M960 927C960 943.016 947.016 956 931 956C914.984 956 902 943.016 902 927C902 910.984 914.984 898 931 898C947.016 898 960 910.984 960 927Z" fill="white"/>
<path d="M2080 927C2080 943.016 2067.02 956 2051 956C2034.98 956 2022 943.016 2022 927C2022 910.984 2034.98 898 2051 898C2067.02 898 2080 910.984 2080 927Z" fill="white"/>
<path d="M1792.5 1296.5C1834.19 1296.78 1868.22 1263.2 1868.5 1221.5C1868.78 1179.81 1835.2 1145.78 1793.5 1145.5C1531.78 1143.76 1310.11 1144.72 1185.71 1145.19C1144.01 1145.35 1110.34 1179.29 1110.5 1220.98C1110.66 1262.68 1144.59 1296.35 1186.29 1296.19C1310.69 1295.72 1531.65 1294.76 1792.5 1296.5Z" fill="black"/>
</svg>
