<svg width="3429" height="2646" viewBox="0 0 3429 2646" fill="none" xmlns="http://www.w3.org/2000/svg">
<path d="M2978 1692.05C2978 2514.4 2311.35 2645.05 1489 2645.05C666.648 2645.05 0 2514.4 0 1692.05C0 869.699 666.648 203.051 1489 203.051C2311.35 203.051 2978 869.699 2978 1692.05Z" fill="#FF4D0C"/>
<path d="M1121 1159.05C1121 1212.07 1078.02 1255.05 1025 1255.05C971.981 1255.05 929 1212.07 929 1159.05C929 1106.03 971.981 1063.05 1025 1063.05C1078.02 1063.05 1121 1106.03 1121 1159.05Z" fill="black"/>
<path d="M1083 1140.55C1083 1159.6 1067.55 1175.05 1048.5 1175.05C1029.45 1175.05 1014 1159.6 1014 1140.55C1014 1121.5 1029.45 1106.05 1048.5 1106.05C1067.55 1106.05 1083 1121.5 1083 1140.55Z" fill="white"/>
<path d="M2353 1159.05C2353 1212.07 2310.02 1255.05 2257 1255.05C2203.98 1255.05 2161 1212.07 2161 1159.05C2161 1106.03 2203.98 1063.05 2257 1063.05C2310.02 1063.05 2353 1106.03 2353 1159.05Z" fill="black"/>
<path d="M2315 1140.55C2315 1159.6 2299.55 1175.05 2280.5 1175.05C2261.45 1175.05 2246 1159.6 2246 1140.55C2246 1121.5 2261.45 1106.05 2280.5 1106.05C2299.55 1106.05 2315 1121.5 2315 1140.55Z" fill="white"/>
<path d="M1920.7 1307.8C1954.25 1283.05 2001.52 1290.18 2026.27 1323.73C2051.03 1357.29 2043.9 1404.56 2010.34 1429.31C1864.4 1536.98 1725.37 1563.43 1604.17 1552.93C1486.5 1542.73 1388.75 1497.51 1328.97 1472.09C1290.6 1455.77 1272.72 1411.43 1289.04 1373.06C1305.36 1334.69 1349.7 1316.81 1388.07 1333.13C1452.68 1360.61 1527.8 1394.75 1617.2 1402.49C1703.09 1409.93 1805.35 1392.9 1920.7 1307.8Z" fill="black"/>
<path d="M3114.39 5.77688C3241.57 -22.7599 3367.8 57.2038 3396.34 184.38C3472.82 525.238 3407.45 801.813 3278 1007.28C3153.22 1205.31 2976.01 1326.34 2837.43 1379.43C2715.71 1426.06 2579.25 1365.19 2532.62 1243.48C2485.99 1121.76 2546.86 985.297 2668.57 938.669C2720.35 918.836 2812.88 860.057 2878.65 755.667C2939.74 658.707 2985.72 510.244 2935.79 287.722C2907.25 160.545 2987.22 34.3138 3114.39 5.77688Z" fill="#FF4D0C"/>
</svg>
